G04 ================== begin FILE IDENTIFICATION RECORD ==================*
G04 Layout Name:  LAUNCHXL-CC26X2R1.brd*
G04 Film Name:    LAUNCHXL-CC26X2R1_paste_bottom*
G04 File Format:  Gerber RS274X*
G04 File Origin:  Cadence Allegro 17.2-S041*
G04 Origin Date:  Thu Oct 04 13:25:34 2018*
G04 *
G04 Layer:  DRAWING FORMAT/TITLE_BLOCK*
G04 Layer:  BOARD GEOMETRY/BOTTOM PASTE*
G04 Layer:  PIN/FILMMASKBOTTOM*
G04 Layer:  BOARD GEOMETRY/OUTLINE*
G04 *
G04 Offset:    (0.000 0.000)*
G04 Mirror:    No*
G04 Mode:      Positive*
G04 Rotation:  0*
G04 FullContactRelief:  No*
G04 UndefLineWidth:     0.099*
G04 ================== end FILE IDENTIFICATION RECORD ====================*
%FSLAX25Y25*MOIN*%
%IR0*IPPOS*OFA0.00000B0.00000*MIA0B0*SFA1.00000B1.00000*%
%ADD10C,.05*%
%ADD11C,.003898*%
%ADD12C,.003937*%
G75*
%LPD*%
G75*
G54D10*
X795866Y814961D03*
X1009646D03*
X992126Y1156693D03*
G54D11*
G01X994193Y690402D02*
X994728Y687303D01*
X995343Y690402D01*
X995957Y687303D01*
X996492Y690402D01*
G01X999283Y690142D02*
X999055Y690299D01*
X998787Y690402D01*
X998480D01*
X998134Y690248D01*
X997866Y689988D01*
X997673Y689677D01*
X997520Y689161D01*
X997484Y688697D01*
X997559Y688232D01*
X997673Y687921D01*
X997906Y687614D01*
X998173Y687406D01*
X998441Y687303D01*
X998709D01*
X998976Y687406D01*
X999209Y687563D01*
X999398Y687768D01*
G01X1000736Y687717D02*
X1001039Y687457D01*
X1001386Y687303D01*
X1001693D01*
X1002000Y687457D01*
X1002228Y687717D01*
X1002343Y688079D01*
X1002268Y688441D01*
X1002075Y688748D01*
X1001732Y688957D01*
X1001272Y689059D01*
X1001004Y689264D01*
X1000890Y689626D01*
X1000965Y689988D01*
X1001157Y690248D01*
X1001425Y690402D01*
X1001693D01*
X1001961Y690299D01*
X1002189Y690039D01*
G01X1004638Y690402D02*
X1004331Y690299D01*
X1004102Y690039D01*
X1003949Y689728D01*
X1003835Y689319D01*
X1003795Y688850D01*
X1003835Y688386D01*
X1003949Y687976D01*
X1004102Y687665D01*
X1004331Y687406D01*
X1004638Y687303D01*
X1004945Y687406D01*
X1005173Y687665D01*
X1005327Y687976D01*
X1005441Y688386D01*
X1005480Y688850D01*
X1005441Y689319D01*
X1005327Y689728D01*
X1005173Y690039D01*
X1004945Y690299D01*
X1004638Y690402D01*
G01X1006894Y687921D02*
X1007122Y687563D01*
X1007429Y687354D01*
X1007776Y687303D01*
X1008083Y687354D01*
X1008386Y687614D01*
X1008579Y687921D01*
X1008618Y688232D01*
X1008539Y688594D01*
X1008272Y688850D01*
X1008004Y688957D01*
X1007661D01*
G01X1008004D02*
X1008236Y689110D01*
X1008425Y689370D01*
X1008504Y689677D01*
X1008425Y689988D01*
X1008236Y690248D01*
X1007890Y690402D01*
X1007543Y690350D01*
X1007201Y690142D01*
G01X1010760Y687303D02*
X1010835Y687976D01*
X1010949Y688543D01*
X1011102Y689059D01*
X1011295Y689626D01*
X1011602Y690402D01*
X1010067D01*
G01X1016264Y687303D02*
Y690402D01*
X1017224D01*
X1017531Y690248D01*
X1017720Y690039D01*
X1017799Y689626D01*
X1017720Y689213D01*
X1017492Y688957D01*
X1017224Y688799D01*
X1016264D01*
G01X1017224D02*
X1017799Y687303D01*
G01X1019555Y688697D02*
X1020780D01*
X1020665Y689059D01*
X1020476Y689264D01*
X1020205Y689370D01*
X1019937Y689319D01*
X1019709Y689161D01*
X1019555Y688799D01*
X1019480Y688492D01*
Y688181D01*
X1019555Y687870D01*
X1019748Y687563D01*
X1019976Y687354D01*
X1020244Y687303D01*
X1020512Y687406D01*
X1020780Y687717D01*
G01X1022539Y689370D02*
X1023228Y687303D01*
X1023917Y689370D01*
G01X1026327Y687201D02*
X1026252Y687252D01*
Y687354D01*
X1026327Y687406D01*
X1026402Y687354D01*
Y687252D01*
X1026327Y687201D01*
G01X1032831Y688957D02*
X1032984Y689110D01*
X1033098Y689370D01*
X1033173Y689728D01*
X1033098Y690039D01*
X1032945Y690248D01*
X1032677Y690402D01*
X1031642D01*
Y687303D01*
X1032906D01*
X1033173Y687508D01*
X1033327Y687819D01*
X1033406Y688181D01*
X1033327Y688543D01*
X1033098Y688850D01*
X1032831Y688957D01*
X1031642D01*
G01X994280Y698374D02*
Y695276D01*
X995815D01*
G01X997189D02*
X998146Y698374D01*
X999102Y695276D01*
G01X998760Y696358D02*
X997531D01*
G01X1000402Y698374D02*
Y696154D01*
X1000555Y695689D01*
X1000862Y695378D01*
X1001244Y695276D01*
X1001626Y695378D01*
X1001933Y695689D01*
X1002087Y696154D01*
Y698374D01*
G01X1003461Y695276D02*
Y698374D01*
X1005224Y695276D01*
Y698374D01*
G01X1008283Y698114D02*
X1008055Y698272D01*
X1007787Y698374D01*
X1007480D01*
X1007134Y698220D01*
X1006866Y697961D01*
X1006673Y697650D01*
X1006520Y697134D01*
X1006484Y696669D01*
X1006559Y696205D01*
X1006673Y695894D01*
X1006906Y695587D01*
X1007173Y695378D01*
X1007441Y695276D01*
X1007709D01*
X1007976Y695378D01*
X1008209Y695535D01*
X1008398Y695740D01*
G01X1009736Y695276D02*
Y698374D01*
G01X1011343D02*
Y695276D01*
G01Y696823D02*
X1009736D01*
G01X1012835Y695276D02*
X1014441Y698374D01*
G01X1012835D02*
X1014441Y695276D01*
G01X1015969Y698374D02*
Y695276D01*
X1017504D01*
G01X1019335Y696307D02*
X1020335D01*
G01X1023776Y698114D02*
X1023547Y698272D01*
X1023280Y698374D01*
X1022972D01*
X1022626Y698220D01*
X1022358Y697961D01*
X1022165Y697650D01*
X1022012Y697134D01*
X1021976Y696669D01*
X1022051Y696205D01*
X1022165Y695894D01*
X1022398Y695587D01*
X1022665Y695378D01*
X1022933Y695276D01*
X1023201D01*
X1023469Y695378D01*
X1023701Y695535D01*
X1023890Y695740D01*
G01X1026874Y698114D02*
X1026646Y698272D01*
X1026378Y698374D01*
X1026071D01*
X1025724Y698220D01*
X1025457Y697961D01*
X1025264Y697650D01*
X1025110Y697134D01*
X1025075Y696669D01*
X1025150Y696205D01*
X1025264Y695894D01*
X1025496Y695587D01*
X1025764Y695378D01*
X1026031Y695276D01*
X1026299D01*
X1026567Y695378D01*
X1026799Y695535D01*
X1026988Y695740D01*
G01X1028402Y697858D02*
X1028630Y698169D01*
X1028902Y698323D01*
X1029205Y698374D01*
X1029591Y698272D01*
X1029858Y698012D01*
X1029933Y697701D01*
X1029898Y697394D01*
X1029744Y697134D01*
X1028976Y696618D01*
X1028630Y696256D01*
X1028402Y695740D01*
X1028327Y695276D01*
X1029933D01*
G01X1031500Y696567D02*
X1031768Y696929D01*
X1032000Y697134D01*
X1032303Y697236D01*
X1032575Y697134D01*
X1032764Y696929D01*
X1032917Y696618D01*
X1032957Y696256D01*
X1032917Y695949D01*
X1032764Y695638D01*
X1032535Y695378D01*
X1032268Y695276D01*
X1031961Y695378D01*
X1031693Y695689D01*
X1031539Y696154D01*
X1031500Y696669D01*
X1031579Y697343D01*
X1031693Y697701D01*
X1031882Y698063D01*
X1032154Y698323D01*
X1032421Y698374D01*
X1032689Y698272D01*
X1032878Y698012D01*
G01X1034524Y695276D02*
X1036130Y698374D01*
G01X1034524D02*
X1036130Y695276D01*
G01X1037697Y697858D02*
X1037925Y698169D01*
X1038197Y698323D01*
X1038500Y698374D01*
X1038886Y698272D01*
X1039154Y698012D01*
X1039228Y697701D01*
X1039193Y697394D01*
X1039039Y697134D01*
X1038272Y696618D01*
X1037925Y696256D01*
X1037697Y695740D01*
X1037622Y695276D01*
X1039228D01*
G01X1040756D02*
Y698374D01*
X1041717D01*
X1042024Y698220D01*
X1042213Y698012D01*
X1042291Y697598D01*
X1042213Y697185D01*
X1041984Y696929D01*
X1041717Y696772D01*
X1040756D01*
G01X1041717D02*
X1042291Y695276D01*
G01X1044622D02*
Y698374D01*
X1044161Y697756D01*
G01Y695276D02*
X1045083D01*
G01X793157Y787402D02*
X1011961D01*
G03X1017717Y793157I0J5756D01*
G01Y962598D01*
G03X1013386Y975000I-19922J0D01*
G02X1009055Y987402I15591J12402D01*
G02X1013386Y999803I19922J0D01*
G03X1017717Y1012205I-15591J12402D01*
G01Y1156843D01*
G03X1011961Y1162598I-5756J0D01*
G01X849606D01*
Y1157874D01*
X843307D01*
Y1149606D01*
X839764D01*
Y1157874D01*
X824803D01*
Y1149606D01*
X821260D01*
Y1157874D01*
X814961D01*
Y1162598D01*
X793157D01*
G03X787402Y1156843I0J-5756D01*
G01Y1012205D01*
G03X791732Y999803I19922J0D01*
G02X796063Y987402I-15591J-12402D01*
G02X791732Y975000I-19922J0D01*
G03X787402Y962598I15591J-12402D01*
G01Y793157D01*
G03X793157Y787402I5756J0D01*
G01X944339Y688780D02*
Y696280D01*
X946579D01*
X947323Y695906D01*
X947886Y695031D01*
X948071Y694031D01*
X947886Y693031D01*
X947417Y692280D01*
X946579Y691906D01*
X944339D01*
G01X951280Y688780D02*
Y696280D01*
X953705Y690028D01*
X956130Y696280D01*
Y688780D01*
G01X969453Y692780D02*
X969823Y693154D01*
X970102Y693780D01*
X970291Y694654D01*
X970102Y695406D01*
X969732Y695906D01*
X969079Y696280D01*
X966559D01*
Y688780D01*
X969638D01*
X970291Y689280D01*
X970665Y690028D01*
X970850Y690906D01*
X970665Y691780D01*
X970102Y692528D01*
X969453Y692780D01*
X966559D01*
G01X976205Y688780D02*
X975457Y688906D01*
X974807Y689406D01*
X974244Y690154D01*
X973870Y691028D01*
X973685Y692028D01*
Y693031D01*
X973870Y694031D01*
X974244Y694906D01*
X974807Y695654D01*
X975457Y696154D01*
X976205Y696280D01*
X976953Y696154D01*
X977602Y695654D01*
X978165Y694906D01*
X978539Y694031D01*
X978724Y693031D01*
Y692028D01*
X978539Y691028D01*
X978165Y690154D01*
X977602Y689406D01*
X976953Y688906D01*
X976205Y688780D01*
G01X983705Y696280D02*
Y688780D01*
G01X981559Y696280D02*
X985850D01*
G01X951602Y668650D02*
Y676150D01*
X953469D01*
X954213Y675776D01*
X954772Y675276D01*
X955240Y674524D01*
X955614Y673650D01*
X955705Y672398D01*
X955614Y671150D01*
X955240Y670276D01*
X954772Y669524D01*
X954213Y669024D01*
X953469Y668650D01*
X951602D01*
G01X958819D02*
X961154Y676150D01*
X963488Y668650D01*
G01X962646Y671276D02*
X959661D01*
G01X968654Y676150D02*
Y668650D01*
G01X966508Y676150D02*
X970799D01*
G01X978020Y668650D02*
X974287D01*
Y676150D01*
X978020D01*
G01X976528Y672524D02*
X974287D01*
G01X983654Y668402D02*
X983469Y668524D01*
Y668776D01*
X983654Y668898D01*
X983839Y668776D01*
Y668524D01*
X983654Y668402D01*
G01Y671776D02*
X983469Y671898D01*
Y672150D01*
X983654Y672276D01*
X983839Y672150D01*
Y671898D01*
X983654Y671776D01*
G01X996882Y674902D02*
X997441Y675650D01*
X998094Y676024D01*
X998839Y676150D01*
X999772Y675902D01*
X1000425Y675276D01*
X1000614Y674524D01*
X1000520Y673776D01*
X1000146Y673150D01*
X998280Y671898D01*
X997441Y671024D01*
X996882Y669776D01*
X996693Y668650D01*
X1000614D01*
G01X1006154Y676150D02*
X1005406Y675902D01*
X1004846Y675276D01*
X1004472Y674524D01*
X1004193Y673524D01*
X1004102Y672398D01*
X1004193Y671276D01*
X1004472Y670276D01*
X1004846Y669524D01*
X1005406Y668898D01*
X1006154Y668650D01*
X1006902Y668898D01*
X1007461Y669524D01*
X1007835Y670276D01*
X1008114Y671276D01*
X1008205Y672398D01*
X1008114Y673524D01*
X1007835Y674524D01*
X1007461Y675276D01*
X1006902Y675902D01*
X1006154Y676150D01*
G01X1013654Y668650D02*
Y676150D01*
X1012535Y674650D01*
G01Y668650D02*
X1014772D01*
G01X1021154D02*
X1021807Y668776D01*
X1022551Y669150D01*
X1023020Y669776D01*
X1023205Y670650D01*
X1023020Y671524D01*
X1022461Y672276D01*
X1021618Y672650D01*
X1020689D01*
X1020126Y672902D01*
X1019661Y673524D01*
X1019472Y674398D01*
X1019756Y675276D01*
X1020406Y675902D01*
X1021154Y676150D01*
X1021902Y675902D01*
X1022551Y675276D01*
X1022835Y674398D01*
X1022646Y673524D01*
X1022181Y672902D01*
X1021618Y672650D01*
X1020689D01*
X1019846Y672276D01*
X1019287Y671524D01*
X1019102Y670650D01*
X1019287Y669776D01*
X1019756Y669150D01*
X1020500Y668776D01*
X1021154Y668650D01*
G01X1027441Y671150D02*
X1029866D01*
G01X1036154Y676150D02*
X1035406Y675902D01*
X1034846Y675276D01*
X1034472Y674524D01*
X1034193Y673524D01*
X1034102Y672398D01*
X1034193Y671276D01*
X1034472Y670276D01*
X1034846Y669524D01*
X1035406Y668898D01*
X1036154Y668650D01*
X1036902Y668898D01*
X1037461Y669524D01*
X1037835Y670276D01*
X1038114Y671276D01*
X1038205Y672398D01*
X1038114Y673524D01*
X1037835Y674524D01*
X1037461Y675276D01*
X1036902Y675902D01*
X1036154Y676150D01*
G01X1043469Y668650D02*
X1043654Y670276D01*
X1043933Y671650D01*
X1044307Y672902D01*
X1044772Y674276D01*
X1045520Y676150D01*
X1041787D01*
G01X1049941Y671150D02*
X1052366D01*
G01X1058654Y668650D02*
Y676150D01*
X1057535Y674650D01*
G01Y668650D02*
X1059772D01*
G01X1066154Y676150D02*
X1065406Y675902D01*
X1064846Y675276D01*
X1064472Y674524D01*
X1064193Y673524D01*
X1064102Y672398D01*
X1064193Y671276D01*
X1064472Y670276D01*
X1064846Y669524D01*
X1065406Y668898D01*
X1066154Y668650D01*
X1066902Y668898D01*
X1067461Y669524D01*
X1067835Y670276D01*
X1068114Y671276D01*
X1068205Y672398D01*
X1068114Y673524D01*
X1067835Y674524D01*
X1067461Y675276D01*
X1066902Y675902D01*
X1066154Y676150D01*
G01X953457Y715323D02*
Y707823D01*
G01X951311Y715323D02*
X955602D01*
G01X962823Y707823D02*
X959091D01*
Y715323D01*
X962823D01*
G01X961331Y711697D02*
X959091D01*
G01X966496Y707823D02*
X970417Y715323D01*
G01X966496D02*
X970417Y707823D01*
G01X973622D02*
X975957Y715323D01*
X978291Y707823D01*
G01X977449Y710449D02*
X974465D01*
G01X981496Y708823D02*
X982244Y708197D01*
X983083Y707823D01*
X983831D01*
X984575Y708197D01*
X985138Y708823D01*
X985417Y709697D01*
X985228Y710571D01*
X984764Y711323D01*
X983921Y711823D01*
X982803Y712075D01*
X982150Y712571D01*
X981870Y713449D01*
X982059Y714323D01*
X982524Y714949D01*
X983177Y715323D01*
X983831D01*
X984484Y715075D01*
X985043Y714449D01*
G01X997339Y715323D02*
X999575D01*
G01X998457D02*
Y707823D01*
G01X997339D02*
X999575D01*
G01X1003811D02*
Y715323D01*
X1008102Y707823D01*
Y715323D01*
G01X1011496Y708823D02*
X1012244Y708197D01*
X1013083Y707823D01*
X1013831D01*
X1014575Y708197D01*
X1015138Y708823D01*
X1015417Y709697D01*
X1015228Y710571D01*
X1014764Y711323D01*
X1013921Y711823D01*
X1012803Y712075D01*
X1012150Y712571D01*
X1011870Y713449D01*
X1012059Y714323D01*
X1012524Y714949D01*
X1013177Y715323D01*
X1013831D01*
X1014484Y715075D01*
X1015043Y714449D01*
G01X1020957Y715323D02*
Y707823D01*
G01X1018811Y715323D02*
X1023102D01*
G01X1026591Y707823D02*
Y715323D01*
X1028921D01*
X1029669Y714949D01*
X1030138Y714449D01*
X1030323Y713449D01*
X1030138Y712449D01*
X1029575Y711823D01*
X1028921Y711449D01*
X1026591D01*
G01X1028921D02*
X1030323Y707823D01*
G01X1033906Y715323D02*
Y709949D01*
X1034276Y708823D01*
X1035024Y708071D01*
X1035957Y707823D01*
X1036890Y708071D01*
X1037638Y708823D01*
X1038008Y709949D01*
Y715323D01*
G01X1041031Y707823D02*
Y715323D01*
X1043457Y709071D01*
X1045882Y715323D01*
Y707823D01*
G01X1052823D02*
X1049091D01*
Y715323D01*
X1052823D01*
G01X1051331Y711697D02*
X1049091D01*
G01X1056311Y707823D02*
Y715323D01*
X1060602Y707823D01*
Y715323D01*
G01X1065957D02*
Y707823D01*
G01X1063811Y715323D02*
X1068102D01*
G01X1071496Y708823D02*
X1072244Y708197D01*
X1073083Y707823D01*
X1073831D01*
X1074575Y708197D01*
X1075138Y708823D01*
X1075417Y709697D01*
X1075228Y710571D01*
X1074764Y711323D01*
X1073921Y711823D01*
X1072803Y712075D01*
X1072150Y712571D01*
X1071870Y713449D01*
X1072059Y714323D01*
X1072524Y714949D01*
X1073177Y715323D01*
X1073831D01*
X1074484Y715075D01*
X1075043Y714449D01*
G54D12*
G01X791634Y721260D02*
Y662205D01*
X1086909D01*
Y721260D01*
X791634D01*
G01X939272D02*
Y662205D01*
G01Y681890D02*
X1086909D01*
G01Y701575D02*
X939272D01*
G01X989177D02*
Y681890D01*
M02*
